<?xml version="1.0" encoding="utf-8"?>
<!-- Generator: Adobe Illustrator 21.0.0, SVG Export Plug-In . SVG Version: 6.00 Build 0)  -->
<svg version="1.1" id="_x2014_ÎÓÈ_1" xmlns="http://www.w3.org/2000/svg" xmlns:xlink="http://www.w3.org/1999/xlink" x="0px"
	 y="0px" viewBox="0 0 595 842" style="enable-background:new 0 0 595 842;" xml:space="preserve">
<style type="text/css">
	.st0{fill-rule:evenodd;clip-rule:evenodd;fill:#E6E6E6;stroke:url(#SVGID_1_);stroke-miterlimit:22.9256;}
	.st1{fill-rule:evenodd;clip-rule:evenodd;fill:#FFFFFF;}
	.st2{fill-rule:evenodd;clip-rule:evenodd;fill:#FFFFFF;stroke:#1A1A1A;stroke-width:0.216;stroke-miterlimit:22.9256;}
	.st3{fill-rule:evenodd;clip-rule:evenodd;fill:#FFFFFF;stroke:#666666;stroke-width:0.216;stroke-miterlimit:22.9256;}
</style>
<linearGradient id="SVGID_1_" gradientUnits="userSpaceOnUse" x1="134.0833" y1="289.9253" x2="468.9218" y2="289.9253">
	<stop  offset="0" style="stop-color:#FFFFFF"/>
	<stop  offset="1" style="stop-color:#000000"/>
</linearGradient>
<rect x="134.6" y="123" class="st0" width="333.8" height="333.8"/>
<path class="st1" d="M427.8,398.1c-60.9-81.8-194.7-81-252.6,0C228.4,297.3,374.6,297.3,427.8,398.1z"/>
<path class="st2" d="M266.3,320.1c-25.6,4-48.4,16.5-65.4,34.6v-10.4c17-18.1,39.8-30.6,65.4-34.6V320.1L266.3,320.1z M200.9,326.2
	v10.4c17-18.1,39.8-30.6,65.4-34.6v-10.4C240.6,295.6,217.8,308.2,200.9,326.2L200.9,326.2z M200.9,307.5v10.4
	c17-18.1,39.8-30.6,65.4-34.6v-10.4C240.6,276.9,217.8,289.5,200.9,307.5L200.9,307.5z M200.9,288.3c17-18.1,39.8-30.6,65.4-34.6
	v10.4c-25.6,4-48.4,16.5-65.4,34.6V288.3z"/>
<path class="st3" d="M311.2,178.3v13.8c33,2.1,63.1,14.7,86.9,34.6v-13.8C374.3,193,344.2,180.4,311.2,178.3L311.2,178.3z
	 M311.2,203.2c33,2.1,63.1,14.7,86.9,34.6v13.8c-23.9-19.9-54-32.5-86.9-34.6V203.2L311.2,203.2z M311.2,227.2V241
	c33,2.1,63.1,14.7,86.9,34.6v-13.8C374.3,241.9,344.2,229.3,311.2,227.2L311.2,227.2z M311.2,252.7c33,2.1,63.1,14.7,86.9,34.6v13.8
	c-23.9-19.9-54-32.5-86.9-34.6V252.7L311.2,252.7z M311.2,277.6v13.8c33,2.1,63.1,14.7,86.9,34.6v-13.8
	C374.3,292.3,344.2,279.7,311.2,277.6L311.2,277.6z M311.2,301.6c33,2.1,63.1,14.7,86.9,34.6v13.8c-23.9-19.9-54-32.5-86.9-34.6
	V301.6z"/>
<path class="st2" d="M311.2,301.6c-6.8,1.5-18.1,8.8-21.1,15.8c5.2-1,11-2.7,21.1-2C311.2,310.8,311.2,306.2,311.2,301.6
	L311.2,301.6z M311.2,277.6c0,4.6,0,9.2,0,13.8c-10.1,4.3-15.8,8.9-21.1,12.4C293.6,293.3,302.4,283.4,311.2,277.6L311.2,277.6z
	 M311.2,252.7c-10.2,6.5-19,21.3-21.1,37.3c4.5-9.1,9.7-18.8,21.1-23.5C311.2,261.9,311.2,257.3,311.2,252.7L311.2,252.7z
	 M311.2,227.2c0,4.6,0,9.2,0,13.8c-12.2,5.9-17.3,17.6-21.1,29.6C291.6,252.6,300.4,235.2,311.2,227.2L311.2,227.2z M311.2,203.2
	c0,4.6,0,9.2,0,13.8c-12.8,9.1-17.5,23.3-21.1,37.4C290.6,231.4,299.8,212.2,311.2,203.2L311.2,203.2z M311.2,178.3
	c-14.7,10-20.4,31.5-21.1,55.9c2.7-18,9.8-31.6,21.1-42.1C311.2,187.5,311.2,182.9,311.2,178.3z"/>
<path class="st3" d="M266.3,309.7c5.9,1.6,11.4,3.9,15.7,8.7c-5.2-0.4-10.4,0-15.7,1.7C266.3,316.6,266.3,313.1,266.3,309.7
	L266.3,309.7z M266.3,291.7c5.9,3.9,11.9,8.6,15.7,14.8c-5.2-2.5-10.4-4.1-15.7-4.4C266.3,298.6,266.3,295.2,266.3,291.7
	L266.3,291.7z M266.3,272.9c0,3.5,0,6.9,0,10.4c5.2,1.6,10.4,4.6,15.7,8.4C278.1,284.8,271.8,277.2,266.3,272.9L266.3,272.9z
	 M266.3,253.7c5.5,6.6,11.8,16.9,15.7,25.5c-5.2-6-10.4-11.2-15.7-15.1C266.3,260.6,266.3,257.2,266.3,253.7z"/>
<path class="st1" d="M342.1,401.5c-38.9-52.3-124.4-51.8-161.4,0C214.6,337.1,308.1,337.1,342.1,401.5z"/>
</svg>
